<svg xmlns="http://www.w3.org/2000/svg" version="1.1" xmlns:xlink="http://www.w3.org/1999/xlink" viewBox="0 0 200 200"><rect width="200" height="200" fill="url('#gradient')"></rect><defs><linearGradient id="gradient" gradientTransform="rotate(98 0.5 0.5)"><stop offset="0%" stop-color="#8f8f8f"></stop><stop offset="100%" stop-color="#8f8f8f"></stop></linearGradient></defs><g><g fill="#00bfff" transform="matrix(8.252339688041594,0,0,8.252339688041594,2.085759479954092,157.85061816491535)" stroke="#148fb8" stroke-width="0.65"><path d="M6.04 0.20L6.04 0.20Q3.60 0.20 2.10-1.25Q0.60-2.71 0.60-5.03L0.60-5.03L0.60-5.30Q0.60-6.92 1.20-8.16Q1.80-9.40 2.95-10.08Q4.10-10.76 5.68-10.76L5.68-10.76Q7.91-10.76 9.20-9.38Q10.49-8.00 10.49-5.53L10.49-5.53L10.49-4.25L3.95-4.25Q4.12-3.36 4.72-2.85Q5.31-2.34 6.26-2.34L6.26-2.34Q7.82-2.34 8.70-3.44L8.70-3.44L10.21-1.66Q9.59-0.81 8.46-0.31Q7.33 0.20 6.04 0.20ZM5.66-8.22L5.66-8.22Q4.22-8.22 3.95-6.31L3.95-6.31L7.27-6.31L7.27-6.56Q7.29-7.35 6.87-7.79Q6.45-8.22 5.66-8.22ZM16.64 0L11.96 0L11.96-14.22L16.54-14.22Q18.43-14.22 19.93-13.36Q21.44-12.51 22.28-10.95Q23.13-9.39 23.13-7.46L23.13-7.46L23.13-6.81Q23.13-4.85 22.31-3.31Q21.48-1.76 19.99-0.88Q18.49-0.01 16.64 0L16.64 0ZM16.54-11.57L15.39-11.57L15.39-2.64L16.58-2.64Q18.06-2.64 18.85-3.69Q19.64-4.74 19.64-6.81L19.64-6.81L19.64-7.42Q19.64-9.48 18.85-10.53Q18.06-11.57 16.54-11.57L16.54-11.57Z"></path></g></g></svg>